<?xml version="1.0" ?><svg width="20px" height="20px" viewBox="0 0 20 20" version="1.1" xmlns="http://www.w3.org/2000/svg"><g id="layer1"><path d="M 10 0.029296875 L 9.4941406 0.048828125 L 8.9941406 0.11328125 L 8.4980469 0.21875 L 8.015625 0.36523438 L 7.5449219 0.55273438 L 7.0917969 0.78125 L 6.6601562 1.0429688 L 6.2519531 1.3417969 L 5.8710938 1.6738281 L 5.5175781 2.0371094 L 5.1992188 2.4296875 L 4.9140625 2.8457031 L 4.6621094 3.2832031 L 4.4511719 3.7421875 L 4.2792969 4.21875 L 4.1484375 4.7050781 L 4.0566406 5.203125 L 4.0078125 5.7070312 L 4.0039062 6.2109375 L 4.0410156 6.7148438 L 4.1191406 7.2128906 L 4.2441406 7.7050781 L 4.40625 8.1835938 L 4.6074219 8.6445312 L 4.8476562 9.0917969 L 5.125 9.5136719 L 5.4726562 10.029297 L 5.7871094 10.564453 L 6.0664062 11.121094 L 6.3105469 11.691406 L 6.5195312 12.275391 L 6.6933594 12.875 L 6.8261719 13.480469 L 6.921875 14.09375 L 6.9804688 14.712891 L 7 15.333984 L 7 18.003906 L 7.0195312 18.287109 L 7.0800781 18.564453 L 7.1796875 18.832031 L 7.3183594 19.082031 L 7.4882812 19.310547 L 7.6914062 19.513672 L 7.9179688 19.683594 L 8.1699219 19.820312 L 8.4375 19.919922 L 8.7148438 19.980469 L 9 20 L 11 20 L 11.285156 19.980469 L 11.5625 19.919922 L 11.830078 19.820312 L 12.082031 19.683594 L 12.310547 19.513672 L 12.511719 19.310547 L 12.681641 19.082031 L 12.820312 18.832031 L 12.919922 18.564453 L 12.980469 18.287109 L 13 18.003906 L 13 15.333984 L 13.019531 14.712891 L 13.078125 14.09375 L 13.173828 13.480469 L 13.306641 12.875 L 13.480469 12.275391 L 13.689453 11.691406 L 13.933594 11.121094 L 14.212891 10.564453 L 14.527344 10.029297 L 14.875 9.5136719 L 15.152344 9.0917969 L 15.392578 8.6445312 L 15.59375 8.1835938 L 15.757812 7.7050781 L 15.880859 7.2128906 L 15.958984 6.7148438 L 15.996094 6.2109375 L 15.992188 5.7070312 L 15.943359 5.203125 L 15.853516 4.7050781 L 15.722656 4.21875 L 15.548828 3.7421875 L 15.337891 3.2832031 L 15.087891 2.8457031 L 14.800781 2.4296875 L 14.482422 2.0371094 L 14.128906 1.6738281 L 13.748047 1.3417969 L 13.339844 1.0429688 L 12.908203 0.78125 L 12.455078 0.55273438 L 11.986328 0.36523438 L 11.501953 0.21875 L 11.005859 0.11328125 L 10.505859 0.048828125 L 10 0.029296875 z M 10 1.0273438 L 10.457031 1.0488281 L 10.908203 1.1113281 L 11.353516 1.2148438 L 11.787109 1.3574219 L 12.205078 1.5390625 L 12.607422 1.7597656 L 12.984375 2.0136719 L 13.337891 2.3027344 L 13.664062 2.6230469 L 13.958984 2.9707031 L 14.222656 3.34375 L 14.449219 3.7402344 L 14.638672 4.15625 L 14.789062 4.5859375 L 14.898438 5.0273438 L 14.970703 5.4785156 L 15 5.9335938 L 14.986328 6.390625 L 14.931641 6.8417969 L 14.835938 7.2871094 L 14.699219 7.7246094 L 14.525391 8.1445312 L 14.3125 8.5488281 L 14.0625 8.9296875 L 13.699219 9.4707031 L 13.365234 10.03125 L 13.068359 10.609375 L 12.806641 11.205078 L 12.578125 11.814453 L 12.388672 12.439453 L 12.236328 13.070312 L 12.121094 13.710938 L 12.044922 14.357422 L 12.005859 15.007812 L 7.9941406 15.007812 L 7.9550781 14.357422 L 7.8789062 13.710938 L 7.7636719 13.070312 L 7.6113281 12.439453 L 7.421875 11.814453 L 7.1933594 11.205078 L 6.9316406 10.609375 L 6.6347656 10.03125 L 6.3007812 9.4707031 L 5.9375 8.9296875 L 5.6894531 8.5488281 L 5.4746094 8.1445312 L 5.3007812 7.7246094 L 5.1640625 7.2871094 L 5.0703125 6.8417969 L 5.015625 6.390625 L 5.0019531 5.9335938 L 5.03125 5.4785156 L 5.1015625 5.0273438 L 5.2109375 4.5859375 L 5.3613281 4.15625 L 5.5507812 3.7402344 L 5.7792969 3.34375 L 6.0410156 2.9707031 L 6.3359375 2.6230469 L 6.6621094 2.3027344 L 7.015625 2.0136719 L 7.3945312 1.7597656 L 7.7949219 1.5390625 L 8.2128906 1.3574219 L 8.6464844 1.2148438 L 9.0917969 1.1113281 L 9.5449219 1.0488281 L 10 1.0273438 z M 8 16.005859 L 12 16.005859 L 12 18.003906 L 11.982422 18.197266 L 11.921875 18.384766 L 11.830078 18.556641 L 11.707031 18.708984 L 11.554688 18.832031 L 11.382812 18.923828 L 11.193359 18.980469 L 11 19 L 9 19 L 8.8066406 18.980469 L 8.6171875 18.923828 L 8.4453125 18.832031 L 8.2929688 18.708984 L 8.1699219 18.556641 L 8.078125 18.384766 L 8.0175781 18.197266 L 8 18.003906 L 8 16.005859 z " style="fill:#222222; fill-opacity:1; stroke:none; stroke-width:0px;"/></g></svg>